HIERARCHY
ROOT hip
{
  OFFSET 0 0 0
  CHANNELS 6 Xposition Yposition Zposition Zrotation Yrotation Xrotation
  JOINT abdomen
  {
    OFFSET 0 20.6881 -0.73152
    CHANNELS 3 Zrotation Xrotation Yrotation
    JOINT chest
    {
      OFFSET 0 11.7043 -0.48768
      CHANNELS 3 Zrotation Xrotation Yrotation
      JOINT neck
      {
        OFFSET 0 22.1894 -2.19456
        CHANNELS 3 Zrotation Xrotation Yrotation
        JOINT head
        {
          OFFSET -0.24384 7.07133 1.2192
          CHANNELS 3 Zrotation Xrotation Yrotation
          JOINT leftEye
          {
            OFFSET 4.14528 8.04674 8.04672
            CHANNELS 3 Zrotation Xrotation Yrotation
            End Site
            {
              OFFSET 1 0 0
            }
          }
          JOINT rightEye
          {
            OFFSET -3.6576 8.04674 8.04672
            CHANNELS 3 Zrotation Xrotation Yrotation
            End Site
            {
              OFFSET 1 0 0
            }
          }
        }
      }
      JOINT rCollar
      {
        OFFSET -2.68224 19.2634 -4.8768
        CHANNELS 3 Zrotation Xrotation Yrotation
        JOINT rShldr
        {
          OFFSET -8.77824 -1.95073 1.46304
          CHANNELS 3 Zrotation Xrotation Yrotation
          JOINT rForeArm
          {
            OFFSET -28.1742 -1.7115 0.48768
            CHANNELS 3 Zrotation Xrotation Yrotation
            JOINT rHand
            {
              OFFSET -22.5879 0.773209 7.07136
              CHANNELS 3 Zrotation Xrotation Yrotation
              JOINT rThumb1
              {
                OFFSET -1.2192 -0.487915 3.41376
                CHANNELS 3 Zrotation Xrotation Yrotation
                JOINT rThumb2
                {
                  OFFSET -3.37035 -0.52449 3.41376
                  CHANNELS 3 Zrotation Xrotation Yrotation
                  End Site
                  {
                    OFFSET -1.78271 -1.18214 1.43049
                  }
                }
              }
              JOINT rIndex1
              {
                OFFSET -7.75947 0.938293 5.60832
                CHANNELS 3 Zrotation Xrotation Yrotation
                JOINT rIndex2
                {
                  OFFSET -2.54057 -0.884171 1.56538
                  CHANNELS 3 Zrotation Xrotation Yrotation
                  End Site
                  {
                    OFFSET -1.62519 -0.234802 1.16502
                  }
                }
              }
              JOINT rMid1
              {
                OFFSET -8.24714 1.18213 3.41376
                CHANNELS 3 Zrotation Xrotation Yrotation
                JOINT rMid2
                {
                  OFFSET -3.10165 -0.590103 1.0647
                  CHANNELS 3 Zrotation Xrotation Yrotation
                  End Site
                  {
                    OFFSET -2.48547 -0.328903 0.83742
                  }
                }
              }
              JOINT rRing1
              {
                OFFSET -8.82822 0.546677 1.51678
                CHANNELS 3 Zrotation Xrotation Yrotation
                JOINT rRing2
                {
                  OFFSET -2.60934 -0.819778 -0.0198488
                  CHANNELS 3 Zrotation Xrotation Yrotation
                  End Site
                  {
                    OFFSET -2.33842 -0.294052 0.168128
                  }
                }
              }
              JOINT rPinky1
              {
                OFFSET -8.27202 -0.0477905 -0.4584
                CHANNELS 3 Zrotation Xrotation Yrotation
                JOINT rPinky2
                {
                  OFFSET -1.82734 -0.647385 -0.700984
                  CHANNELS 3 Zrotation Xrotation Yrotation
                  End Site
                  {
                    OFFSET -1.69225 -0.51767 -0.607171
                  }
                }
              }
            }
          }
        }
      }
      JOINT lCollar
      {
        OFFSET 2.68224 19.2634 -4.8768
        CHANNELS 3 Zrotation Xrotation Yrotation
        JOINT lShldr
        {
          OFFSET 8.77824 -1.95073 1.46304
          CHANNELS 3 Zrotation Xrotation Yrotation
          JOINT lForeArm
          {
            OFFSET 28.1742 -1.7115 0.48768
            CHANNELS 3 Zrotation Xrotation Yrotation
            JOINT lHand
            {
              OFFSET 22.5879 0.773209 7.07136
              CHANNELS 3 Zrotation Xrotation Yrotation
              JOINT lThumb1
              {
                OFFSET 1.2192 -0.487915 3.41376
                CHANNELS 3 Zrotation Xrotation Yrotation
                JOINT lThumb2
                {
                  OFFSET 3.37035 -0.52449 3.41376
                  CHANNELS 3 Zrotation Xrotation Yrotation
                  End Site
                  {
                    OFFSET 1.78271 -1.18214 1.43049
                  }
                }
              }
              JOINT lIndex1
              {
                OFFSET 7.75947 0.938293 5.60832
                CHANNELS 3 Zrotation Xrotation Yrotation
                JOINT lIndex2
                {
                  OFFSET 2.54057 -0.884171 1.56538
                  CHANNELS 3 Zrotation Xrotation Yrotation
                  End Site
                  {
                    OFFSET 1.62519 -0.234802 1.16502
                  }
                }
              }
              JOINT lMid1
              {
                OFFSET 8.24714 1.18213 3.41376
                CHANNELS 3 Zrotation Xrotation Yrotation
                JOINT lMid2
                {
                  OFFSET 3.10165 -0.590103 1.0647
                  CHANNELS 3 Zrotation Xrotation Yrotation
                  End Site
                  {
                    OFFSET 2.48547 -0.328903 0.83742
                  }
                }
              }
              JOINT lRing1
              {
                OFFSET 8.82822 0.546677 1.51678
                CHANNELS 3 Zrotation Xrotation Yrotation
                JOINT lRing2
                {
                  OFFSET 2.60934 -0.819778 -0.0198488
                  CHANNELS 3 Zrotation Xrotation Yrotation
                  End Site
                  {
                    OFFSET 2.33842 -0.294052 0.168128
                  }
                }
              }
              JOINT lPinky1
              {
                OFFSET 8.27202 -0.0477905 -0.4584
                CHANNELS 3 Zrotation Xrotation Yrotation
                JOINT lPinky2
                {
                  OFFSET 1.82734 -0.647385 -0.700984
                  CHANNELS 3 Zrotation Xrotation Yrotation
                  End Site
                  {
                    OFFSET 1.69225 -0.51767 -0.607171
                  }
                }
              }
            }
          }
        }
      }
    }
  }
  JOINT rButtock
  {
    OFFSET -8.77824 4.35084 1.2192
    CHANNELS 3 Zrotation Xrotation Yrotation
    JOINT rThigh
    {
      OFFSET 0 -1.70687 -2.19456
      CHANNELS 3 Zrotation Xrotation Yrotation
      JOINT rShin
      {
        OFFSET 0 -36.8199 0.73152
        CHANNELS 3 Zrotation Xrotation Yrotation
        JOINT rFoot
        {
          OFFSET 0.73152 -45.1104 -5.12064
          CHANNELS 3 Zrotation Xrotation Yrotation
          End Site
          {
            OFFSET -1.1221 -3.69964 12.103
          }
        }
      }
    }
  }
  JOINT lButtock
  {
    OFFSET 8.77824 4.35084 1.2192
    CHANNELS 3 Zrotation Xrotation Yrotation
    JOINT lThigh
    {
      OFFSET 0 -1.70687 -2.19456
      CHANNELS 3 Zrotation Xrotation Yrotation
      JOINT lShin
      {
        OFFSET 0 -36.8199 0.73152
        CHANNELS 3 Zrotation Xrotation Yrotation
        JOINT lFoot
        {
          OFFSET -0.73152 -45.1104 -5.12064
          CHANNELS 3 Zrotation Xrotation Yrotation
          End Site
          {
            OFFSET 1.1221 -3.69964 12.103
          }
        }
      }
    }
  }
}
MOTION
Frames:	4
Frame Time:	0.03333
0.04839999973773956 47.452701568603516 0.28600001335144043 -143.99900436401367 74.65220153331757 -134.55699563026428 4.565000049769878 20.989000350236893 -6.637130230665207 9.372550249099731 -11.797999441623688 -0.589588014408946 -7.774700000882149 24.752500355243683 -20.018799751996994 23.690098822116852 -32.46630012989044 -33.65720093250275 0.0 0.0 0.0 0.0 0.0 0.0 0.0 3.581135388230905e-11 0.0 52.341002225875854 23.85640114545822 -0.8300669956952333 -26.933501064777374 -44.191099405288696 91.82480335235596 -0.03221269900677726 -5.138480141758919 -0.7241029758006334 1.871143240350648e-09 9.976020010071807e-10 -6.46650732960552e-09 3.2498803648195462e-09 1.7266188478970435e-09 -1.116802650358295e-08 1.871143240350648e-09 9.976020010071807e-10 -6.46650732960552e-09 7.7309102565050125 5.474880114197731 0.41731400415301323 1.871143240350648e-09 9.976020010071807e-10 -6.46650732960552e-09 2.905540131032467 0.9651830233633518 0.102901995414868 1.871143240350648e-09 9.976020010071807e-10 -6.46650732960552e-09 10.27859978377819 0.7318009994924068 0.025912300043273717 1.871143240350648e-09 9.976020010071807e-10 -6.46650732960552e-09 2.221670038998127 -0.733487019315362 -0.2089200052432716 0.0 3.581135388230905e-11 0.0 -78.25710117816925 56.60039842128754 2.661420051008463 27.40849882364273 -42.812500298023224 -89.1279011964798 1.2627600319683552 -30.16280025243759 4.684670157730579 3.5568348266679095e-09 -5.364029220800148e-09 7.61247065383941e-09 5.963229909866641e-09 -9.30583610170288e-09 1.3229737305664457e-08 3.5568348266679095e-09 -5.364029220800148e-09 7.61247065383941e-09 -7.7309102565050125 5.474880114197731 -0.41731400415301323 3.5568348266679095e-09 -5.364029220800148e-09 7.61247065383941e-09 -2.905540131032467 0.9651830233633518 -0.102901995414868 3.5568348266679095e-09 -5.364029220800148e-09 7.61247065383941e-09 -10.27859978377819 0.7318009994924068 -0.025912300043273717 3.5568348266679095e-09 -5.364029220800148e-09 7.61247065383941e-09 -2.221670038998127 -0.733487019315362 0.2089200052432716 0.0 0.0 0.0 -46.49380266666412 -48.082298040390015 -34.21050041913986 -3.651129864156246 79.3602991104126 5.829889923334122 0.909894984215498 -24.043501317501068 -2.8563199192285538 0.0 0.0 0.0 76.30750000476837 -58.026400208473206 59.71819818019867 172.12400436401367 83.1987977027893 -174.80400323867798 1.7565999738872051 -26.286699771881104 7.785359770059586
0.0835999995470047 47.2333984375 0.5260000079870224 -145.42799949645996 74.32100236415863 -136.21300220489502 4.66063991189003 20.98959982395172 -6.784520298242569 9.47657972574234 -11.828500181436539 -0.6138180010020733 -7.86238007247448 24.771600365638733 -20.029700249433517 23.664499819278717 -32.36869990825653 -33.70150029659271 0.0 0.0 0.0 0.0 0.0 0.0 0.0 3.069544618483633e-11 0.0 52.443097829818726 23.645399808883667 -1.325490027666092 -26.926100850105286 -44.21070098876953 91.86359882354736 -0.03511759947286919 -5.334220044314861 -0.7518790103495121 1.9760193481488386e-09 1.0385292625869624e-09 -6.164668775454629e-09 3.4282976457689074e-09 1.7956836018129252e-09 -1.0646203918440733e-08 1.9760193481488386e-09 1.0385292625869624e-09 -6.164668775454629e-09 7.7309102565050125 5.474880114197731 0.41731400415301323 1.9760193481488386e-09 1.0385292625869624e-09 -6.164668775454629e-09 2.905540131032467 0.9651830233633518 0.102901995414868 1.9760193481488386e-09 1.0385292625869624e-09 -6.164668775454629e-09 10.27859978377819 0.7318009994924068 0.025912300043273717 1.9760193481488386e-09 1.0385292625869624e-09 -6.164668775454629e-09 2.221670038998127 -0.733487019315362 -0.2089200052432716 0.0 3.069544618483633e-11 0.0 -76.71240091323853 57.27370262145996 1.2398900091648102 27.363300919532776 -42.95769900083542 -89.40730154514313 1.2879000417888165 -30.42109966278076 4.733770005404949 4.134292908020143e-09 -6.052118806110229e-09 8.671463547216263e-09 6.93717083777301e-09 -1.050040054906276e-08 1.5071464076754637e-08 4.134292908020143e-09 -6.052118806110229e-09 8.671463547216263e-09 -7.7309102565050125 5.474880114197731 -0.41731400415301323 4.134292908020143e-09 -6.052118806110229e-09 8.671463547216263e-09 -2.905540131032467 0.9651830233633518 -0.102901995414868 4.134292908020143e-09 -6.052118806110229e-09 8.671463547216263e-09 -10.27859978377819 0.7318009994924068 -0.025912300043273717 4.134292908020143e-09 -6.052118806110229e-09 8.671463547216263e-09 -2.221670038998127 -0.733487019315362 0.2089200052432716 0.0 0.0 0.0 -46.72589957714081 -48.02969992160797 -34.363000094890594 -3.977939933538437 80.14190018177032 6.221979930996895 0.6496959831565619 -24.233200550079346 -3.4075500816106796 0.0 0.0 0.0 76.65420234203339 -58.22179913520813 59.80450093746185 172.2089982032776 83.09580087661743 -174.85999703407288 1.5127400681376457 -26.238599717617035 7.377810180187225
0.1233999989926815 47.08140182495117 0.7280000150203705 -146.88899874687195 74.10919904708862 -137.84200429916382 4.804410003125668 21.022100150585175 -6.9005801528692245 9.515939801931381 -11.901000291109085 -0.6295269867405295 -7.932350188493729 24.766399562358856 -20.028899610042572 23.679600656032562 -32.389299273490906 -33.69860082864761 0.0 0.0 0.0 0.0 0.0 0.0 0.0 1.2789769243681803e-11 0.0 52.70659804344177 23.38140070438385 -2.05680001527071 -26.90810054540634 -44.25729900598526 91.95689678192139 -0.030082000885158777 -4.945750012993813 -0.6968270055949688 1.234212732015294e-09 4.0671466194908135e-10 -1.724060894048307e-09 2.1320545329217566e-09 7.034373084024992e-10 -2.9672264645341784e-09 1.234212732015294e-09 4.0671466194908135e-10 -1.724060894048307e-09 7.7309102565050125 5.474880114197731 0.41731400415301323 1.234212732015294e-09 4.0671466194908135e-10 -1.724060894048307e-09 2.905540131032467 0.9651830233633518 0.102901995414868 1.234212732015294e-09 4.0671466194908135e-10 -1.724060894048307e-09 10.27859978377819 0.7318009994924068 0.025912300043273717 1.234212732015294e-09 4.0671466194908135e-10 -1.724060894048307e-09 2.221670038998127 -0.733487019315362 -0.2089200052432716 0.0 1.2789769243681803e-11 0.0 -75.19999980926514 57.773698568344116 0.02007479954045266 27.320101261138916 -43.09309959411621 -89.66910123825073 1.2660100311040878 -30.192599594593048 4.690499939024448 2.950599764517392e-09 -4.172022727289004e-09 5.683773451892193e-09 4.968825351170381e-09 -7.249241207318846e-09 9.883933671517298e-09 2.950599764517392e-09 -4.172022727289004e-09 5.683773451892193e-09 -7.7309102565050125 5.474880114197731 -0.41731400415301323 2.950599764517392e-09 -4.172022727289004e-09 5.683773451892193e-09 -2.905540131032467 0.9651830233633518 -0.102901995414868 2.950599764517392e-09 -4.172022727289004e-09 5.683773451892193e-09 -10.27859978377819 0.7318009994924068 -0.025912300043273717 2.950599764517392e-09 -4.172022727289004e-09 5.683773451892193e-09 -2.221670038998127 -0.733487019315362 0.2089200052432716 0.0 0.0 0.0 -46.73180043697357 -47.930699586868286 -34.30649936199188 -4.263690076768398 80.76350212097168 6.578039824962616 0.30501999193802476 -24.35009926557541 -4.127410054206848 0.0 0.0 0.0 76.88830018043518 -58.39650213718414 59.778499603271484 172.21399784088135 83.05820167064667 -174.83099699020386 1.2949700094759464 -26.216299831867218 7.003530040383339
0.15149999968707561 46.95669937133789 0.9190000146627426 -147.83400535583496 73.69649827480316 -138.95100116729736 4.985810145735741 21.058000177145004 -7.096970155835152 9.568450078368187 -11.991799771785736 -0.6625379808247089 -8.026430010795593 24.777900874614716 -20.02920001745224 23.726898729801178 -32.49990016222 -33.687099516391754 0.0 0.0 0.0 0.0 0.0 0.0 0.0 7.673861546209082e-12 0.0 52.921298146247864 23.185199797153473 -2.7282499708235264 -26.88970059156418 -44.30429935455322 92.05109596252441 -0.025902398920152336 -4.591159969568253 -0.6466419948264956 1.7317347555945162e-09 3.632294465205632e-10 -9.92486093309708e-10 2.984492653013149e-09 6.266986929404084e-10 -1.7035972632584162e-09 1.7317347555945162e-09 3.632294465205632e-10 -9.92486093309708e-10 7.7309102565050125 5.474880114197731 0.41731400415301323 1.7317347555945162e-09 3.632294465205632e-10 -9.92486093309708e-10 2.905540131032467 0.9651830233633518 0.102901995414868 1.7317347555945162e-09 3.632294465205632e-10 -9.92486093309708e-10 10.27859978377819 0.7318009994924068 0.025912300043273717 1.7317347555945162e-09 3.632294465205632e-10 -9.92486093309708e-10 2.221670038998127 -0.733487019315362 -0.2089200052432716 0.0 7.673861546209082e-12 0.0 -74.18940246105194 57.92640209197998 -0.6897109793499112 27.261999249458313 -43.273000717163086 -90.01529932022095 1.229859972372651 -29.810899794101715 4.618599973618984 3.21918491863471e-09 -4.8549964049016126e-09 6.8757799454033375e-09 5.410711878539587e-09 -8.431015885435045e-09 1.1950760381296277e-08 3.21918491863471e-09 -4.8549964049016126e-09 6.8757799454033375e-09 -7.7309102565050125 5.474880114197731 -0.41731400415301323 3.21918491863471e-09 -4.8549964049016126e-09 6.8757799454033375e-09 -2.905540131032467 0.9651830233633518 -0.102901995414868 3.21918491863471e-09 -4.8549964049016126e-09 6.8757799454033375e-09 -10.27859978377819 0.7318009994924068 -0.025912300043273717 3.21918491863471e-09 -4.8549964049016126e-09 6.8757799454033375e-09 -2.221670038998127 -0.733487019315362 0.2089200052432716 0.0 0.0 0.0 -46.72729969024658 -47.80099868774414 -34.30910110473633 -4.506019949913025 81.2380975484848 6.8811797350645065 -0.002827589851222001 -24.439100325107574 -4.76262990385294 0.0 0.0 0.0 77.13990211486816 -58.59300076961517 59.800697565078735 172.1840000152588 83.0521023273468 -174.76799726486206 1.0926199704408646 -26.162500083446503 6.657160297036171
